# Blender 3.5.1
# www.blender.org
mtllib sm_hallway_window_02_02.mtl
o Cube.002
v -1.530718 0.889633 2.702767
v -1.530718 1.004948 2.702767
v -1.530718 0.889633 2.136408
v -1.530718 1.004948 2.136408
v 1.530718 0.889633 2.702767
v 1.530718 1.004948 2.702767
v 1.530718 0.889633 2.136408
v 1.530718 1.004948 2.136408
v -1.530718 0.889633 2.590617
v -1.530718 0.889633 2.248558
v -1.530718 1.004948 2.248558
v -1.530718 1.004948 2.590617
v 1.530718 0.889633 2.248558
v 1.530718 0.889633 2.590617
v 1.530718 1.004948 2.590617
v 1.530718 1.004948 2.248558
vn -0.0000 1.0000 -0.0000
vn -0.0000 -0.0000 -1.0000
vn -0.0000 -0.0000 1.0000
vn -1.0000 -0.0000 -0.0000
vn 1.0000 -0.0000 -0.0000
vn -0.0000 -1.0000 -0.0000
vt 0.884218 -1.500868
vt 0.442970 -1.389296
vt 0.442970 -1.464530
vt 0.442970 -1.353556
vt 1.391806 -1.174307
vt 0.884218 -1.536608
vt 1.391806 -1.426629
vt 0.442970 -1.462967
vt 1.059750 -1.500868
vt 1.391806 -1.349839
vt 1.391806 -1.390890
vt 1.059750 -1.536608
vt 1.391806 -1.389296
vt 1.391806 -1.464530
vt 0.878377 -1.500868
vt 1.391806 -1.353556
vt 0.442970 -1.174307
vt 0.878377 -1.536608
vt 0.702845 -1.500868
vt 0.442970 -1.426629
vt 1.391806 -1.462967
vt 0.442970 -1.349839
vt 0.442970 -1.390890
vt 0.702845 -1.536608
vt 0.442970 -1.499289
vt 0.918976 -1.500868
vt 0.442970 -1.428208
vt 1.024991 -1.500868
vt 1.024991 -1.536608
vt 1.391806 -1.315080
vt 1.391806 -1.209065
vt 0.918976 -1.536608
vt 1.391806 -1.428208
vt 0.737604 -1.500868
vt 1.391806 -1.499289
vt 0.843619 -1.500868
vt 0.843619 -1.536608
vt 0.442970 -1.209065
vt 0.442970 -1.315080
vt 0.737603 -1.536608
s 0
usemtl mat_2
f 4/10/1 16/39/1 8/22/1
f 4/11/2 7/20/2 3/7/2
f 6/16/3 1/2/3 5/13/3
f 11/29/4 3/9/4 10/28/4
f 8/24/5 13/34/5 7/19/5
f 12/31/1 6/17/1 15/38/1
f 14/35/6 1/3/6 9/25/6
f 15/37/5 5/15/5 14/36/5
f 7/21/6 10/27/6 3/8/6
f 15/38/1 11/30/1 12/31/1
f 14/36/5 16/40/5 15/37/5
f 10/28/4 12/32/4 11/29/4
f 2/6/4 9/26/4 1/1/4
f 4/10/1 11/30/1 16/39/1
f 4/11/2 8/23/2 7/20/2
f 6/16/3 2/4/3 1/2/3
f 11/29/4 4/12/4 3/9/4
f 8/24/5 16/40/5 13/34/5
f 12/31/1 2/5/1 6/17/1
f 14/35/6 5/14/6 1/3/6
f 15/37/5 6/18/5 5/15/5
f 7/21/6 13/33/6 10/27/6
f 15/38/1 16/39/1 11/30/1
f 14/36/5 13/34/5 16/40/5
f 10/28/4 9/26/4 12/32/4
f 2/6/4 12/32/4 9/26/4
