# Blender 3.5.1
# www.blender.org
mtllib sm_hallway_02.mtl
o sm_hallway_02
v -1.674398 4.707747 -2.122079
v -0.372589 6.340164 -2.122079
v -1.043970 6.016843 -2.122079
v -1.508581 5.434240 -2.122079
v -1.514732 4.689756 -2.122079
v -0.336835 6.183516 -2.122079
v -0.943790 5.891222 -2.122079
v -1.363816 5.364526 -2.122079
v -2.122079 4.707747 -1.674398
v -2.122079 6.340164 -0.372589
v -2.122079 6.016843 -1.043970
v -2.122079 5.434240 -1.508581
v -2.122079 4.689756 -1.514732
v -2.122079 6.183516 -0.336835
v -2.122079 5.891222 -0.943790
v -2.122079 5.364526 -1.363816
v -2.122079 0.000000 -1.514733
v -2.122079 0.000000 -1.674398
v -1.674398 0.000000 -2.122079
v -1.514733 0.000000 -2.122079
v -2.122079 6.183516 0.000000
v -2.122079 6.340164 0.000000
v 0.000000 6.340164 -2.122079
v 0.000000 6.183516 -2.122079
v -1.514732 4.689756 -2.122079
v -0.336835 6.183516 -2.122079
v -0.943790 5.891222 -2.122079
v -1.363816 5.364526 -2.122079
v -2.122079 4.689756 -1.514732
v -2.122079 6.183516 -0.336835
v -2.122079 5.891222 -0.943790
v -2.122079 5.364526 -1.363816
v -2.500000 6.183516 -0.336835
v -2.500000 5.891222 -0.943790
v -2.500000 5.364526 -1.363816
v -2.500000 4.689756 -1.514732
v -2.500000 0.000000 -1.514733
v -2.122079 0.000000 -1.514733
v -2.500000 6.183516 0.000000
v 0.000000 6.183516 -2.500000
v -1.514733 0.000000 -2.500000
v -1.514733 0.000000 -2.122079
v -1.514732 4.689756 -2.500000
v -1.363816 5.364526 -2.500000
v -0.336835 6.183516 -2.500000
v -0.943790 5.891222 -2.500000
v -2.122079 6.183516 0.000000
v 0.000000 6.183516 -2.122079
v 1.674398 4.707747 -2.122079
v 0.372589 6.340164 -2.122079
v 1.043970 6.016843 -2.122079
v 1.508581 5.434240 -2.122079
v 1.514732 4.689756 -2.122079
v 0.336835 6.183516 -2.122079
v 0.943790 5.891222 -2.122079
v 1.363816 5.364526 -2.122079
v 2.122079 4.707747 -1.674398
v 2.122079 6.340164 -0.372589
v 2.122079 6.016843 -1.043970
v 2.122079 5.434240 -1.508581
v 2.122079 4.689756 -1.514732
v 2.122079 6.183516 -0.336835
v 2.122079 5.891222 -0.943790
v 2.122079 5.364526 -1.363816
v 2.122079 0.000000 -1.514733
v 2.122079 0.000000 -1.674398
v 1.674398 0.000000 -2.122079
v 1.514733 0.000000 -2.122079
v 2.122079 6.183516 0.000000
v 2.122079 6.340164 0.000000
v 1.514732 4.689756 -2.122079
v 0.336835 6.183516 -2.122079
v 0.943790 5.891222 -2.122079
v 1.363816 5.364526 -2.122079
v 2.122079 4.689756 -1.514732
v 2.122079 6.183516 -0.336835
v 2.122079 5.891222 -0.943790
v 2.122079 5.364526 -1.363816
v 2.500000 6.183516 -0.336835
v 2.500000 5.891222 -0.943790
v 2.500000 5.364526 -1.363816
v 2.500000 4.689756 -1.514732
v 2.500000 0.000000 -1.514733
v 2.122079 0.000000 -1.514733
v 2.500000 6.183516 0.000000
v 1.514733 0.000000 -2.500000
v 1.514733 0.000000 -2.122079
v 1.514732 4.689756 -2.500000
v 1.363816 5.364526 -2.500000
v 0.336835 6.183516 -2.500000
v 0.943790 5.891222 -2.500000
v 2.122079 6.183516 0.000000
v -1.674398 4.707747 2.122079
v -0.372589 6.340164 2.122079
v -1.043970 6.016843 2.122079
v -1.508581 5.434240 2.122079
v -1.514732 4.689756 2.122079
v -0.336835 6.183516 2.122079
v -0.943790 5.891222 2.122079
v -1.363816 5.364526 2.122079
v -2.122079 4.707747 1.674398
v -2.122079 6.340164 0.372589
v -2.122079 6.016843 1.043970
v -2.122079 5.434240 1.508581
v -2.122079 4.689756 1.514732
v -2.122079 6.183516 0.336835
v -2.122079 5.891222 0.943790
v -2.122079 5.364526 1.363816
v -2.122079 0.000000 1.514733
v -2.122079 0.000000 1.674398
v -1.674398 0.000000 2.122079
v -1.514733 0.000000 2.122079
v 0.000000 6.340164 2.122079
v 0.000000 6.183516 2.122079
v -1.514732 4.689756 2.122079
v -0.336835 6.183516 2.122079
v -0.943790 5.891222 2.122079
v -1.363816 5.364526 2.122079
v -2.122079 4.689756 1.514732
v -2.122079 6.183516 0.336835
v -2.122079 5.891222 0.943790
v -2.122079 5.364526 1.363816
v -2.500000 6.183516 0.336835
v -2.500000 5.891222 0.943790
v -2.500000 5.364526 1.363816
v -2.500000 4.689756 1.514732
v -2.500000 0.000000 1.514733
v -2.122079 0.000000 1.514733
v 0.000000 6.183516 2.500000
v -1.514733 0.000000 2.500000
v -1.514733 0.000000 2.122079
v -1.514732 4.689756 2.500000
v -1.363816 5.364526 2.500000
v -0.336835 6.183516 2.500000
v -0.943790 5.891222 2.500000
v 0.000000 6.183516 2.122079
v 1.674398 4.707747 2.122079
v 0.372589 6.340164 2.122079
v 1.043970 6.016843 2.122079
v 1.508581 5.434240 2.122079
v 1.514732 4.689756 2.122079
v 0.336835 6.183516 2.122079
v 0.943790 5.891222 2.122079
v 1.363816 5.364526 2.122079
v 2.122079 4.707747 1.674398
v 2.122079 6.340164 0.372589
v 2.122079 6.016843 1.043970
v 2.122079 5.434240 1.508581
v 2.122079 4.689756 1.514732
v 2.122079 6.183516 0.336835
v 2.122079 5.891222 0.943790
v 2.122079 5.364526 1.363816
v 2.122079 0.000000 1.514733
v 2.122079 0.000000 1.674398
v 1.674398 0.000000 2.122079
v 1.514733 0.000000 2.122079
v 1.514732 4.689756 2.122079
v 0.336835 6.183516 2.122079
v 0.943790 5.891222 2.122079
v 1.363816 5.364526 2.122079
v 2.122079 4.689756 1.514732
v 2.122079 6.183516 0.336835
v 2.122079 5.891222 0.943790
v 2.122079 5.364526 1.363816
v 2.500000 6.183516 0.336835
v 2.500000 5.891222 0.943790
v 2.500000 5.364526 1.363816
v 2.500000 4.689756 1.514732
v 2.500000 0.000000 1.514733
v 2.122079 0.000000 1.514733
v 1.514733 0.000000 2.500000
v 1.514733 0.000000 2.122079
v 1.514732 4.689756 2.500000
v 1.363816 5.364526 2.500000
v 0.336835 6.183516 2.500000
v 0.943790 5.891222 2.500000
vn 1.0000 -0.0000 -0.0000
vn -0.0000 -0.0000 1.0000
vn -0.0000 -1.0000 -0.0000
vn -0.0000 -0.9010 0.4339
vn -0.0000 -0.6235 0.7818
vn -0.0000 -0.2183 0.9759
vn 0.4339 -0.9010 -0.0000
vn 0.7818 -0.6235 -0.0000
vn 0.9759 -0.2183 -0.0000
vn -1.0000 -0.0000 -0.0000
vn -0.4339 -0.9010 -0.0000
vn -0.7818 -0.6235 -0.0000
vn -0.9759 -0.2183 -0.0000
vn -0.0000 -0.0000 -1.0000
vn -0.0000 -0.9010 -0.4339
vn -0.0000 -0.6235 -0.7818
vn -0.0000 -0.2183 -0.9759
vt 0.000254 0.321069
vt 0.000254 0.901771
vt 0.000254 0.708204
vt 0.000254 0.514636
vt 0.041301 0.321069
vt 0.041302 0.901771
vt 0.041302 0.708204
vt 0.041302 0.514636
vt 0.104837 0.321069
vt 0.104837 0.901771
vt 0.104837 0.708204
vt 0.104837 0.514636
vt 0.060440 0.321069
vt 0.060440 0.901771
vt 0.060440 0.708204
vt 0.060440 0.514636
vt 0.060440 -0.901818
vt 0.104837 -0.901818
vt 0.000253 -0.901818
vt 0.041301 -0.901818
vt 0.060440 0.998556
vt 0.104837 0.998556
vt 0.000254 0.998556
vt 0.041302 0.998556
vt 0.104837 0.321069
vt 0.104837 0.901771
vt 0.104837 0.708204
vt 0.104837 0.514636
vt 0.302309 0.321069
vt 0.302310 0.901771
vt 0.302310 0.708204
vt 0.302310 0.514636
vt 0.204141 0.901771
vt 0.204141 0.708204
vt 0.204141 0.514636
vt 0.204141 0.321069
vt 0.204140 -0.901818
vt 0.302309 -0.901818
vt 0.204141 0.998556
vt 0.203006 0.998556
vt 0.203006 -0.901818
vt 0.104837 -0.901818
vt 0.203006 0.321069
vt 0.203006 0.514636
vt 0.203006 0.901771
vt 0.203006 0.708204
vt 0.302310 0.998556
vt 0.104837 0.998556
vt 0.000254 0.321069
vt 0.000254 0.901771
vt 0.000254 0.708204
vt 0.000254 0.514636
vt 0.041301 0.321069
vt 0.041302 0.901771
vt 0.041302 0.708204
vt 0.041302 0.514636
vt 0.104837 0.321069
vt 0.104837 0.901771
vt 0.104837 0.708204
vt 0.104837 0.514636
vt 0.060440 0.321069
vt 0.060440 0.901771
vt 0.060440 0.708204
vt 0.060440 0.514636
vt 0.060440 -0.901818
vt 0.104837 -0.901818
vt 0.000253 -0.901818
vt 0.041301 -0.901818
vt 0.060440 0.998556
vt 0.104837 0.998556
vt 0.104837 0.321069
vt 0.104837 0.901771
vt 0.104837 0.708204
vt 0.104837 0.514636
vt 0.302309 0.321069
vt 0.302310 0.901771
vt 0.302310 0.708204
vt 0.302310 0.514636
vt 0.204141 0.901771
vt 0.204141 0.708204
vt 0.204141 0.514636
vt 0.204141 0.321069
vt 0.204140 -0.901818
vt 0.302309 -0.901818
vt 0.204141 0.998556
vt 0.203006 -0.901818
vt 0.104837 -0.901818
vt 0.203006 0.321069
vt 0.203006 0.514636
vt 0.203006 0.901771
vt 0.203006 0.708204
vt 0.302310 0.998556
vt 0.000254 0.321069
vt 0.000254 0.901771
vt 0.000254 0.708204
vt 0.000254 0.514636
vt 0.041301 0.321069
vt 0.041302 0.901771
vt 0.041302 0.708204
vt 0.041302 0.514636
vt 0.104837 0.321069
vt 0.104837 0.901771
vt 0.104837 0.708204
vt 0.104837 0.514636
vt 0.060440 0.321069
vt 0.060440 0.901771
vt 0.060440 0.708204
vt 0.060440 0.514636
vt 0.060440 -0.901818
vt 0.104837 -0.901818
vt 0.000253 -0.901818
vt 0.041301 -0.901818
vt 0.000254 0.998556
vt 0.041302 0.998556
vt 0.104837 0.321069
vt 0.104837 0.901771
vt 0.104837 0.708204
vt 0.104837 0.514636
vt 0.302309 0.321069
vt 0.302310 0.901771
vt 0.302310 0.708204
vt 0.302310 0.514636
vt 0.204141 0.901771
vt 0.204141 0.708204
vt 0.204141 0.514636
vt 0.204141 0.321069
vt 0.204140 -0.901818
vt 0.302309 -0.901818
vt 0.203006 0.998556
vt 0.203006 -0.901818
vt 0.104837 -0.901818
vt 0.203006 0.321069
vt 0.203006 0.514636
vt 0.203006 0.901771
vt 0.203006 0.708204
vt 0.104837 0.998556
vt 0.000254 0.321069
vt 0.000254 0.901771
vt 0.000254 0.708204
vt 0.000254 0.514636
vt 0.041301 0.321069
vt 0.041302 0.901771
vt 0.041302 0.708204
vt 0.041302 0.514636
vt 0.104837 0.321069
vt 0.104837 0.901771
vt 0.104837 0.708204
vt 0.104837 0.514636
vt 0.060440 0.321069
vt 0.060440 0.901771
vt 0.060440 0.708204
vt 0.060440 0.514636
vt 0.060440 -0.901818
vt 0.104837 -0.901818
vt 0.000253 -0.901818
vt 0.041301 -0.901818
vt 0.104837 0.321069
vt 0.104837 0.901771
vt 0.104837 0.708204
vt 0.104837 0.514636
vt 0.302309 0.321069
vt 0.302310 0.901771
vt 0.302310 0.708204
vt 0.302310 0.514636
vt 0.204141 0.901771
vt 0.204141 0.708204
vt 0.204141 0.514636
vt 0.204141 0.321069
vt 0.204140 -0.901818
vt 0.302309 -0.901818
vt 0.203006 -0.901818
vt 0.104837 -0.901818
vt 0.203006 0.321069
vt 0.203006 0.514636
vt 0.203006 0.901771
vt 0.203006 0.708204
s 0
usemtl mat_2
f 10/10/1 15/15/1 11/11/1
f 11/11/1 16/16/1 12/12/1
f 6/6/2 23/23/2 2/2/2
f 18/18/1 13/13/1 17/17/1
f 9/9/1 16/16/1 13/13/1
f 7/7/2 2/2/2 3/3/2
f 8/8/2 3/3/2 4/4/2
f 5/5/2 19/19/2 20/20/2
f 1/1/2 8/8/2 4/4/2
f 14/14/1 22/22/1 21/21/1
f 30/30/3 39/39/3 33/33/3
f 29/29/2 37/37/2 38/38/2
f 30/30/4 34/34/4 31/31/4
f 31/31/5 35/35/5 32/32/5
f 32/32/6 36/36/6 29/29/6
f 43/43/1 42/42/1 41/41/1
f 26/26/3 40/40/3 48/48/3
f 27/27/7 45/45/7 26/26/7
f 28/28/8 46/46/8 27/27/8
f 25/25/9 44/44/9 28/28/9
f 63/63/10 58/58/10 59/59/10
f 64/64/10 59/59/10 60/60/10
f 23/23/2 54/54/2 50/50/2
f 66/66/10 61/61/10 57/57/10
f 57/57/10 64/64/10 60/60/10
f 50/50/2 55/55/2 51/51/2
f 51/51/2 56/56/2 52/52/2
f 67/67/2 53/53/2 68/68/2
f 49/49/2 56/56/2 53/53/2
f 70/70/10 62/62/10 69/69/10
f 85/85/3 76/76/3 79/79/3
f 83/83/2 75/75/2 84/84/2
f 80/80/4 76/76/4 77/77/4
f 81/81/5 77/77/5 78/78/5
f 82/82/6 78/78/6 75/75/6
f 87/87/10 88/88/10 86/86/10
f 40/40/3 72/72/3 48/48/3
f 90/90/11 73/73/11 72/72/11
f 91/91/12 74/74/12 73/73/12
f 89/89/13 71/71/13 74/74/13
f 107/107/1 102/102/1 103/103/1
f 108/108/1 103/103/1 104/104/1
f 113/113/14 98/98/14 94/94/14
f 110/110/1 105/105/1 101/101/1
f 101/101/1 108/108/1 104/104/1
f 94/94/14 99/99/14 95/95/14
f 95/95/14 100/100/14 96/96/14
f 111/111/14 97/97/14 112/112/14
f 93/93/14 100/100/14 97/97/14
f 22/22/1 106/106/1 21/21/1
f 39/39/3 120/120/3 123/123/3
f 127/127/14 119/119/14 128/128/14
f 124/124/15 120/120/15 121/121/15
f 125/125/16 121/121/16 122/122/16
f 126/126/17 122/122/17 119/119/17
f 131/131/1 132/132/1 130/130/1
f 129/129/3 116/116/3 136/136/3
f 134/134/7 117/117/7 116/116/7
f 135/135/8 118/118/8 117/117/8
f 133/133/9 115/115/9 118/118/9
f 146/146/10 151/151/10 147/147/10
f 147/147/10 152/152/10 148/148/10
f 142/142/14 113/113/14 138/138/14
f 154/154/10 149/149/10 153/153/10
f 145/145/10 152/152/10 149/149/10
f 143/143/14 138/138/14 139/139/14
f 144/144/14 139/139/14 140/140/14
f 141/141/14 155/155/14 156/156/14
f 137/137/14 144/144/14 140/140/14
f 150/150/10 70/70/10 69/69/10
f 162/162/3 85/85/3 165/165/3
f 161/161/14 169/169/14 170/170/14
f 162/162/15 166/166/15 163/163/15
f 163/163/16 167/167/16 164/164/16
f 164/164/17 168/168/17 161/161/17
f 173/173/10 172/172/10 171/171/10
f 158/158/3 129/129/3 136/136/3
f 159/159/11 175/175/11 158/158/11
f 160/160/12 176/176/12 159/159/12
f 157/157/13 174/174/13 160/160/13
f 10/10/1 14/14/1 15/15/1
f 11/11/1 15/15/1 16/16/1
f 6/6/2 24/24/2 23/23/2
f 18/18/1 9/9/1 13/13/1
f 9/9/1 12/12/1 16/16/1
f 7/7/2 6/6/2 2/2/2
f 8/8/2 7/7/2 3/3/2
f 5/5/2 1/1/2 19/19/2
f 1/1/2 5/5/2 8/8/2
f 14/14/1 10/10/1 22/22/1
f 30/30/3 47/47/3 39/39/3
f 29/29/2 36/36/2 37/37/2
f 30/30/4 33/33/4 34/34/4
f 31/31/5 34/34/5 35/35/5
f 32/32/6 35/35/6 36/36/6
f 43/43/1 25/25/1 42/42/1
f 26/26/3 45/45/3 40/40/3
f 27/27/7 46/46/7 45/45/7
f 28/28/8 44/44/8 46/46/8
f 25/25/9 43/43/9 44/44/9
f 63/63/10 62/62/10 58/58/10
f 64/64/10 63/63/10 59/59/10
f 23/23/2 24/24/2 54/54/2
f 66/66/10 65/65/10 61/61/10
f 57/57/10 61/61/10 64/64/10
f 50/50/2 54/54/2 55/55/2
f 51/51/2 55/55/2 56/56/2
f 67/67/2 49/49/2 53/53/2
f 49/49/2 52/52/2 56/56/2
f 70/70/10 58/58/10 62/62/10
f 85/85/3 92/92/3 76/76/3
f 83/83/2 82/82/2 75/75/2
f 80/80/4 79/79/4 76/76/4
f 81/81/5 80/80/5 77/77/5
f 82/82/6 81/81/6 78/78/6
f 87/87/10 71/71/10 88/88/10
f 40/40/3 90/90/3 72/72/3
f 90/90/11 91/91/11 73/73/11
f 91/91/12 89/89/12 74/74/12
f 89/89/13 88/88/13 71/71/13
f 107/107/1 106/106/1 102/102/1
f 108/108/1 107/107/1 103/103/1
f 113/113/14 114/114/14 98/98/14
f 110/110/1 109/109/1 105/105/1
f 101/101/1 105/105/1 108/108/1
f 94/94/14 98/98/14 99/99/14
f 95/95/14 99/99/14 100/100/14
f 111/111/14 93/93/14 97/97/14
f 93/93/14 96/96/14 100/100/14
f 22/22/1 102/102/1 106/106/1
f 39/39/3 47/47/3 120/120/3
f 127/127/14 126/126/14 119/119/14
f 124/124/15 123/123/15 120/120/15
f 125/125/16 124/124/16 121/121/16
f 126/126/17 125/125/17 122/122/17
f 131/131/1 115/115/1 132/132/1
f 129/129/3 134/134/3 116/116/3
f 134/134/7 135/135/7 117/117/7
f 135/135/8 133/133/8 118/118/8
f 133/133/9 132/132/9 115/115/9
f 146/146/10 150/150/10 151/151/10
f 147/147/10 151/151/10 152/152/10
f 142/142/14 114/114/14 113/113/14
f 154/154/10 145/145/10 149/149/10
f 145/145/10 148/148/10 152/152/10
f 143/143/14 142/142/14 138/138/14
f 144/144/14 143/143/14 139/139/14
f 141/141/14 137/137/14 155/155/14
f 137/137/14 141/141/14 144/144/14
f 150/150/10 146/146/10 70/70/10
f 162/162/3 92/92/3 85/85/3
f 161/161/14 168/168/14 169/169/14
f 162/162/15 165/165/15 166/166/15
f 163/163/16 166/166/16 167/167/16
f 164/164/17 167/167/17 168/168/17
f 173/173/10 157/157/10 172/172/10
f 158/158/3 175/175/3 129/129/3
f 159/159/11 176/176/11 175/175/11
f 160/160/12 174/174/12 176/176/12
f 157/157/13 173/173/13 174/174/13
