# Blender 3.5.1
# www.blender.org
mtllib statue_02.mtl
o Plane.001
v -1.000000 1.000000 0.468626
v 1.000000 1.000000 0.468626
v -1.000000 1.000000 -0.468626
v 1.000000 1.000000 -0.468626
v -1.000000 0.000000 -0.468626
v -1.000000 0.000000 0.468626
v 1.000000 0.000000 0.468626
v 1.000000 0.000000 -0.468626
v 1.000000 0.319079 -0.468626
v 1.000000 0.319079 0.468626
v -1.000000 0.319079 0.468626
v -1.000000 0.319079 -0.468626
v -1.070546 0.000000 -0.539172
v -1.070546 0.000000 0.539172
v 1.070546 0.000000 0.539172
v 1.070546 0.000000 -0.539172
v 1.070546 0.319079 -0.539172
v -1.070546 0.319079 0.539172
v 1.070546 0.319079 0.539172
v -1.070546 0.319079 -0.539172
vn -0.0000 1.0000 -0.0000
vn -0.0000 -1.0000 -0.0000
vn -0.0000 -0.0000 1.0000
vn -0.0000 -0.0000 -1.0000
vn -1.0000 -0.0000 -0.0000
vn 1.0000 -0.0000 -0.0000
vt 0.463864 0.452653
vt 0.929206 1.089497
vt 0.524750 1.383337
vt -0.399204 0.452653
vt 1.326932 0.452653
vt 0.524750 1.089497
vt 0.463864 0.048197
vt -0.399204 0.048197
vt 0.929206 1.383337
vt -0.368761 0.948438
vt -0.368761 1.352894
vt 0.494307 1.352894
vt 0.494307 0.948438
vt -0.368761 0.483096
vt -0.399204 -0.245643
vt 0.929206 1.089497
vt 1.326932 0.158812
vt 0.524750 1.089497
vt -0.368761 0.887552
vt 0.463864 0.158812
vt 0.929206 0.795656
vt 0.494307 0.887552
vt 0.494307 0.483096
vt 0.463864 -0.245643
vt 0.524750 0.795656
vt 0.524750 0.657963
vt 1.387818 0.021119
vt -0.399204 0.917995
vt 0.990092 0.657963
vt -0.399204 -0.383337
vt -0.399204 1.383337
vt 0.524750 0.520269
vt 0.524750 -0.383337
vt 0.524750 1.383337
vt 0.990092 0.520269
vt 0.463864 0.021119
vt 0.524750 0.917995
vt 0.463864 0.158812
vt -0.399204 0.452653
vt 0.990092 0.657963
vt -0.399204 -0.245643
vt 0.990092 0.795656
vt 0.524750 0.917995
vt 0.524750 0.657963
vt 0.524750 -0.245643
vt -0.399204 0.917995
vt 0.524750 0.795656
vt 1.387818 0.158812
vt 0.524750 0.452653
s 0
usemtl Mat
f 2/4/1 3/7/1 1/1/1
f 5/10/2 7/12/2 6/11/2
f 14/31/2 5/10/2 6/11/2
f 16/37/2 7/12/2 8/13/2
f 17/39/1 12/23/1 9/14/1
f 19/46/1 9/14/1 10/19/1
f 11/20/3 2/5/3 1/1/3
f 9/15/4 3/7/4 4/8/4
f 12/25/5 1/2/5 3/6/5
f 10/18/6 4/9/6 2/3/6
f 15/32/6 17/40/6 19/44/6
f 13/26/5 18/42/5 20/47/5
f 16/36/4 20/48/4 17/38/4
f 14/30/3 19/45/3 18/41/3
f 20/49/1 11/22/1 12/23/1
f 13/28/2 8/13/2 5/10/2
f 18/43/1 10/19/1 11/22/1
f 15/34/2 6/11/2 7/12/2
f 2/4/1 4/8/1 3/7/1
f 5/10/2 8/13/2 7/12/2
f 14/31/2 13/28/2 5/10/2
f 16/37/2 15/34/2 7/12/2
f 17/39/1 20/49/1 12/23/1
f 19/46/1 17/39/1 9/14/1
f 11/20/3 10/17/3 2/5/3
f 9/15/4 12/24/4 3/7/4
f 12/25/5 11/21/5 1/2/5
f 10/18/6 9/16/6 4/9/6
f 15/32/6 16/35/6 17/40/6
f 13/26/5 14/29/5 18/42/5
f 16/36/4 13/27/4 20/48/4
f 14/30/3 15/33/3 19/45/3
f 20/49/1 18/43/1 11/22/1
f 13/28/2 16/37/2 8/13/2
f 18/43/1 19/46/1 10/19/1
f 15/34/2 14/31/2 6/11/2
